<mxfile host="app.diagrams.net" modified="2020-09-07T07:33:10.726Z" agent="5.0 (Windows NT 10.0; Win64; x64) AppleWebKit/537.36 (KHTML, like Gecko) Chrome/83.0.4103.97 Safari/537.36" etag="nlpiOukC-FZ-1hPVnRgQ" version="13.6.6" type="github">
  <diagram id="07fea595-8f29-1299-0266-81d95cde20df" name="Page-1">
    <mxGraphModel dx="253" dy="-65" grid="1" gridSize="10" guides="1" tooltips="1" connect="1" arrows="1" fold="1" page="1" pageScale="1" pageWidth="1169" pageHeight="827" background="#ffffff" math="0" shadow="0">
      <root>
        <mxCell id="0" />
        <mxCell id="1" parent="0" />
        <mxCell id="-LqbD5w62V1PEp2UoVwb-752" value="MIP" style="rounded=0;whiteSpace=wrap;html=1;" vertex="1" parent="1">
          <mxGeometry x="1560" y="910" width="230" height="60" as="geometry" />
        </mxCell>
        <mxCell id="-LqbD5w62V1PEp2UoVwb-753" value="ERP" style="rounded=0;whiteSpace=wrap;html=1;" vertex="1" parent="1">
          <mxGeometry x="1240" y="910" width="250" height="60" as="geometry" />
        </mxCell>
        <mxCell id="-LqbD5w62V1PEp2UoVwb-754" value="第三方" style="rounded=0;whiteSpace=wrap;html=1;" vertex="1" parent="1">
          <mxGeometry x="1880" y="910" width="250" height="60" as="geometry" />
        </mxCell>
        <mxCell id="-LqbD5w62V1PEp2UoVwb-755" value="" style="rounded=0;whiteSpace=wrap;html=1;" vertex="1" parent="1">
          <mxGeometry x="1240" y="1000" width="250" height="390" as="geometry" />
        </mxCell>
        <mxCell id="-LqbD5w62V1PEp2UoVwb-757" value="" style="rounded=0;whiteSpace=wrap;html=1;" vertex="1" parent="1">
          <mxGeometry x="1560" y="1000" width="230" height="380" as="geometry" />
        </mxCell>
        <mxCell id="-LqbD5w62V1PEp2UoVwb-758" value="" style="rounded=0;whiteSpace=wrap;html=1;" vertex="1" parent="1">
          <mxGeometry x="1880" y="990" width="250" height="390" as="geometry" />
        </mxCell>
      </root>
    </mxGraphModel>
  </diagram>
</mxfile>
